<svg xmlns="http://www.w3.org/2000/svg" viewBox="0 0 900 280" width="900" height="280">
  <defs>
    <style>
      /* ===== Background ===== */
      .bg { fill: #0D1117; }
      .ground { fill: #161B22; }
      .ground-line { stroke: #30363D; stroke-width: 2; fill: none; }
      .grass { fill: #238636; }
      .grass-dark { fill: #1a6b2b; }

      /* ===== Stars ===== */
      .star { fill: #A970FF; }
      .star-twinkle {
        animation: twinkle 2s ease-in-out infinite alternate;
      }
      .star-twinkle:nth-child(2) { animation-delay: 0.3s; }
      .star-twinkle:nth-child(3) { animation-delay: 0.7s; }
      .star-twinkle:nth-child(4) { animation-delay: 1.1s; }
      .star-twinkle:nth-child(5) { animation-delay: 1.5s; }
      .star-twinkle:nth-child(6) { animation-delay: 0.5s; }
      .star-twinkle:nth-child(7) { animation-delay: 0.9s; }
      .star-twinkle:nth-child(8) { animation-delay: 1.3s; }

      @keyframes twinkle {
        0% { opacity: 0.3; r: 1; }
        100% { opacity: 1; r: 2.5; }
      }

      /* ===== Cloud ===== */
      .cloud { fill: #21262D; opacity: 0.6; }
      .cloud-move {
        animation: cloudDrift 20s linear infinite;
      }
      .cloud-move2 {
        animation: cloudDrift2 25s linear infinite;
      }
      @keyframes cloudDrift {
        0% { transform: translateX(-100px); }
        100% { transform: translateX(1000px); }
      }
      @keyframes cloudDrift2 {
        0% { transform: translateX(-200px); }
        100% { transform: translateX(1100px); }
      }

      /* ===== DORAEMON FLYING ===== */
      .doraemon-group {
        animation: doraemonFly 8s ease-in-out infinite;
      }
      @keyframes doraemonFly {
        0% { transform: translate(-60px, 30px); }
        25% { transform: translate(200px, 15px); }
        50% { transform: translate(450px, 35px); }
        75% { transform: translate(700px, 20px); }
        100% { transform: translate(960px, 30px); }
      }

      .doraemon-body { fill: #0097E6; }
      .doraemon-face { fill: #FFFFFF; }
      .doraemon-nose { fill: #E74C3C; }
      .doraemon-eye { fill: #FFFFFF; }
      .doraemon-pupil { fill: #2C3E50; }
      .doraemon-mouth { fill: none; stroke: #2C3E50; stroke-width: 1.5; stroke-linecap: round; }
      .doraemon-collar { fill: #E74C3C; }
      .doraemon-bell { fill: #F1C40F; }
      .doraemon-pocket { fill: #FFFFFF; stroke: #0097E6; stroke-width: 0.8; }

      /* Bamboo Copter */
      .copter-blade { fill: #F39C12; }
      .copter-spin {
        animation: spinCopter 0.15s linear infinite;
        transform-origin: 0px -28px;
      }
      @keyframes spinCopter {
        0% { transform: rotate(0deg); }
        100% { transform: rotate(360deg); }
      }

      /* Doraemon bob while flying */
      .doraemon-bob {
        animation: bob 1.2s ease-in-out infinite alternate;
      }
      @keyframes bob {
        0% { transform: translateY(0); }
        100% { transform: translateY(-8px); }
      }

      /* ===== NOBITA RUNNING ===== */
      .nobita-group {
        animation: nobitaRun 10s ease-in-out infinite;
      }
      @keyframes nobitaRun {
        0% { transform: translateX(750px); }
        15% { transform: translateX(600px); }
        30% { transform: translateX(430px); }
        /* Nobita sees Shizuka and stops */
        45% { transform: translateX(340px); }
        50% { transform: translateX(340px); }
        55% { transform: translateX(340px); }
        60% { transform: translateX(340px); }
        /* Starts running again */
        70% { transform: translateX(200px); }
        85% { transform: translateX(50px); }
        100% { transform: translateX(750px); }
      }

      .nobita-skin { fill: #FDBF6F; }
      .nobita-hair { fill: #2C3E50; }
      .nobita-shirt { fill: #F1C40F; }
      .nobita-shorts { fill: #2980B9; }
      .nobita-glasses { fill: none; stroke: #2C3E50; stroke-width: 1.5; }
      .nobita-eye { fill: #2C3E50; }
      .nobita-shoe { fill: #2C3E50; }

      /* Nobita legs running animation */
      .nobita-leg-left {
        animation: legRunL 0.3s ease-in-out infinite alternate;
        transform-origin: 0px 195px;
      }
      .nobita-leg-right {
        animation: legRunR 0.3s ease-in-out infinite alternate;
        transform-origin: 0px 195px;
      }
      @keyframes legRunL {
        0% { transform: rotate(-20deg); }
        100% { transform: rotate(20deg); }
      }
      @keyframes legRunR {
        0% { transform: rotate(20deg); }
        100% { transform: rotate(-20deg); }
      }

      /* Nobita's panic expression - bouncing */
      .nobita-bounce {
        animation: panicBounce 0.4s ease-in-out infinite alternate;
      }
      @keyframes panicBounce {
        0% { transform: translateY(0px); }
        100% { transform: translateY(-4px); }
      }

      /* Sweat drops for Nobita */
      .sweat {
        fill: #85C1E9;
        animation: sweatDrop 0.6s ease-in infinite;
      }
      .sweat:nth-child(2) { animation-delay: 0.3s; }
      @keyframes sweatDrop {
        0% { opacity: 1; transform: translateY(0); }
        100% { opacity: 0; transform: translateY(10px); }
      }

      /* ===== GIAN (Big guy chasing) ===== */
      .gian-group {
        animation: gianChase 10s ease-in-out infinite;
      }
      @keyframes gianChase {
        0% { transform: translateX(830px); }
        15% { transform: translateX(680px); }
        30% { transform: translateX(510px); }
        45% { transform: translateX(420px); }
        50% { transform: translateX(420px); }
        55% { transform: translateX(420px); }
        60% { transform: translateX(420px); }
        70% { transform: translateX(280px); }
        85% { transform: translateX(130px); }
        100% { transform: translateX(830px); }
      }

      .gian-skin { fill: #D4A76A; }
      .gian-hair { fill: #2C3E50; }
      .gian-shirt { fill: #E67E22; }
      .gian-shorts { fill: #795548; }
      .gian-eye { fill: #2C3E50; }
      .gian-shoe { fill: #34495E; }
      .gian-mouth { fill: #C0392B; }

      .gian-leg-left {
        animation: legRunL 0.35s ease-in-out infinite alternate;
        transform-origin: 0px 195px;
      }
      .gian-leg-right {
        animation: legRunR 0.35s ease-in-out infinite alternate;
        transform-origin: 0px 195px;
      }

      /* Gian angry marks */
      .angry-mark {
        fill: #E74C3C;
        animation: angryPulse 0.5s ease-in-out infinite alternate;
      }
      @keyframes angryPulse {
        0% { opacity: 0.6; transform: scale(0.8); }
        100% { opacity: 1; transform: scale(1.2); }
      }

      /* ===== SUNEO (Smaller guy chasing) ===== */
      .suneo-group {
        animation: suneoChase 10s ease-in-out infinite;
      }
      @keyframes suneoChase {
        0% { transform: translateX(890px); }
        15% { transform: translateX(740px); }
        30% { transform: translateX(570px); }
        45% { transform: translateX(480px); }
        50% { transform: translateX(480px); }
        55% { transform: translateX(480px); }
        60% { transform: translateX(480px); }
        70% { transform: translateX(340px); }
        85% { transform: translateX(190px); }
        100% { transform: translateX(890px); }
      }

      .suneo-skin { fill: #FDBF6F; }
      .suneo-hair { fill: #2C3E50; }
      .suneo-shirt { fill: #27AE60; }
      .suneo-shorts { fill: #1ABC9C; }
      .suneo-eye { fill: #2C3E50; }
      .suneo-shoe { fill: #2C3E50; }

      .suneo-leg-left {
        animation: legRunL 0.3s ease-in-out infinite alternate;
        transform-origin: 0px 195px;
      }
      .suneo-leg-right {
        animation: legRunR 0.3s ease-in-out infinite alternate;
        transform-origin: 0px 195px;
      }

      /* ===== SHIZUKA (Standing still, cute) ===== */
      .shizuka-group {
        animation: shizukaWave 2s ease-in-out infinite alternate;
      }
      @keyframes shizukaWave {
        0% { transform: translateY(0); }
        100% { transform: translateY(-3px); }
      }

      .shizuka-skin { fill: #FDBF6F; }
      .shizuka-hair { fill: #5D4037; }
      .shizuka-dress { fill: #E91E63; }
      .shizuka-eye { fill: #2C3E50; }
      .shizuka-blush { fill: #F48FB1; opacity: 0.6; }
      .shizuka-shoe { fill: #AD1457; }

      /* Heart floating from Nobita when he stops */
      .heart {
        fill: #E74C3C;
        animation: heartFloat 1.5s ease-in-out infinite;
      }
      .heart:nth-child(2) { animation-delay: 0.5s; }
      .heart:nth-child(3) { animation-delay: 1s; }
      @keyframes heartFloat {
        0% { opacity: 0; transform: translate(0, 0) scale(0.5); }
        50% { opacity: 1; transform: translate(-5px, -15px) scale(1); }
        100% { opacity: 0; transform: translate(-10px, -30px) scale(0.5); }
      }

      /* ===== Speech / Exclamation ===== */
      .exclaim {
        font-family: 'Comic Sans MS', 'Segoe UI', sans-serif;
        font-weight: bold;
        fill: #F1C40F;
        font-size: 14px;
        animation: exclaim 0.5s ease-in-out infinite alternate;
      }
      @keyframes exclaim {
        0% { opacity: 0.5; transform: scale(0.9); }
        100% { opacity: 1; transform: scale(1.1); }
      }

      /* ===== Footer text ===== */
      .footer-text {
        fill: #8B949E;
        font-family: 'Segoe UI', Tahoma, Geneva, Verdana, sans-serif;
        font-size: 11px;
        text-anchor: middle;
      }
      .footer-highlight {
        fill: #A970FF;
        font-family: 'Segoe UI', Tahoma, Geneva, Verdana, sans-serif;
        font-size: 11px;
        font-weight: bold;
        text-anchor: middle;
      }

      /* Dust particles behind runners */
      .dust {
        fill: #6C757D;
        animation: dustPuff 0.8s ease-out infinite;
      }
      .dust:nth-child(2) { animation-delay: 0.2s; }
      .dust:nth-child(3) { animation-delay: 0.4s; }
      @keyframes dustPuff {
        0% { opacity: 0.8; r: 2; transform: translate(0, 0); }
        100% { opacity: 0; r: 6; transform: translate(15px, -5px); }
      }

      /* Speed lines */
      .speed-line {
        stroke: #58A6FF;
        stroke-width: 1;
        opacity: 0.4;
        animation: speedFade 0.4s linear infinite;
      }
      @keyframes speedFade {
        0% { opacity: 0.6; stroke-dashoffset: 0; }
        100% { opacity: 0; stroke-dashoffset: 20; }
      }
    </style>
  </defs>

  <!-- Background -->
  <rect class="bg" x="0" y="0" width="900" height="280" rx="12"/>

  <!-- Stars -->
  <g>
    <circle class="star star-twinkle" cx="50" cy="25" r="1.5"/>
    <circle class="star star-twinkle" cx="150" cy="40" r="1"/>
    <circle class="star star-twinkle" cx="280" cy="18" r="2"/>
    <circle class="star star-twinkle" cx="400" cy="35" r="1.5"/>
    <circle class="star star-twinkle" cx="520" cy="22" r="1"/>
    <circle class="star star-twinkle" cx="650" cy="42" r="2"/>
    <circle class="star star-twinkle" cx="780" cy="15" r="1.5"/>
    <circle class="star star-twinkle" cx="850" cy="38" r="1"/>
    <circle class="star star-twinkle" cx="100" cy="55" r="1"/>
    <circle class="star star-twinkle" cx="350" cy="50" r="1.5"/>
    <circle class="star star-twinkle" cx="600" cy="12" r="1"/>
    <circle class="star star-twinkle" cx="720" cy="55" r="1.5"/>
  </g>

  <!-- Clouds -->
  <g class="cloud-move">
    <ellipse class="cloud" cx="100" cy="60" rx="40" ry="15"/>
    <ellipse class="cloud" cx="120" cy="55" rx="25" ry="12"/>
    <ellipse class="cloud" cx="80" cy="55" rx="20" ry="10"/>
  </g>
  <g class="cloud-move2">
    <ellipse class="cloud" cx="50" cy="85" rx="30" ry="10"/>
    <ellipse class="cloud" cx="65" cy="80" rx="20" ry="8"/>
  </g>

  <!-- Ground -->
  <rect class="ground" x="0" y="210" width="900" height="70" rx="0"/>
  <line class="ground-line" x1="0" y1="210" x2="900" y2="210"/>

  <!-- Grass tufts -->
  <g>
    <ellipse class="grass" cx="60" cy="215" rx="12" ry="5"/>
    <ellipse class="grass-dark" cx="180" cy="215" rx="8" ry="4"/>
    <ellipse class="grass" cx="320" cy="215" rx="10" ry="4"/>
    <ellipse class="grass-dark" cx="450" cy="215" rx="14" ry="5"/>
    <ellipse class="grass" cx="580" cy="215" rx="9" ry="4"/>
    <ellipse class="grass-dark" cx="700" cy="215" rx="11" ry="5"/>
    <ellipse class="grass" cx="830" cy="215" rx="8" ry="4"/>
  </g>

  <!-- ===== SHIZUKA (Static, at center) ===== -->
  <g class="shizuka-group" transform="translate(340, 0)">
    <!-- Hair -->
    <ellipse class="shizuka-hair" cx="0" cy="155" rx="14" ry="16"/>
    <!-- Hair side strands -->
    <ellipse class="shizuka-hair" cx="-10" cy="165" rx="5" ry="12"/>
    <ellipse class="shizuka-hair" cx="10" cy="165" rx="5" ry="12"/>
    <!-- Face -->
    <ellipse class="shizuka-skin" cx="0" cy="160" rx="11" ry="12"/>
    <!-- Eyes -->
    <ellipse class="shizuka-eye" cx="-4" cy="158" rx="2" ry="2.5"/>
    <ellipse class="shizuka-eye" cx="4" cy="158" rx="2" ry="2.5"/>
    <!-- Eye shine -->
    <circle fill="#FFFFFF" cx="-3" cy="157" r="0.8"/>
    <circle fill="#FFFFFF" cx="5" cy="157" r="0.8"/>
    <!-- Cute smile -->
    <path d="M-4,164 Q0,168 4,164" fill="none" stroke="#C0392B" stroke-width="1.2" stroke-linecap="round"/>
    <!-- Blush -->
    <ellipse class="shizuka-blush" cx="-8" cy="163" rx="3" ry="2"/>
    <ellipse class="shizuka-blush" cx="8" cy="163" rx="3" ry="2"/>
    <!-- Body / Dress -->
    <path class="shizuka-dress" d="M-10,172 L-12,200 L12,200 L10,172 Z"/>
    <path class="shizuka-dress" d="M-14,200 Q0,210 14,200" fill="#E91E63"/>
    <!-- Arms -->
    <line x1="-10" y1="178" x2="-18" y2="185" stroke="#FDBF6F" stroke-width="3" stroke-linecap="round"/>
    <line x1="10" y1="178" x2="16" y2="172" stroke="#FDBF6F" stroke-width="3" stroke-linecap="round"/>
    <!-- Waving hand -->
    <circle class="shizuka-skin" cx="16" cy="170" r="3"/>
    <!-- Legs -->
    <line x1="-5" y1="200" x2="-5" y2="210" stroke="#FDBF6F" stroke-width="3" stroke-linecap="round"/>
    <line x1="5" y1="200" x2="5" y2="210" stroke="#FDBF6F" stroke-width="3" stroke-linecap="round"/>
    <!-- Shoes -->
    <ellipse class="shizuka-shoe" cx="-5" cy="211" rx="4" ry="2"/>
    <ellipse class="shizuka-shoe" cx="5" cy="211" rx="4" ry="2"/>
    <!-- Little flower in hair -->
    <circle fill="#FF69B4" cx="10" cy="148" r="4"/>
    <circle fill="#FFB6C1" cx="10" cy="148" r="2"/>
    <!-- Label -->
    <text x="0" y="232" text-anchor="middle" fill="#E91E63" font-family="'Segoe UI',sans-serif" font-size="9" font-weight="bold">Shizuka</text>
  </g>

  <!-- ===== NOBITA (Running, stops at Shizuka) ===== -->
  <g class="nobita-group">
    <g class="nobita-bounce">
      <!-- Hair -->
      <rect class="nobita-hair" x="-10" y="155" width="20" height="10" rx="5"/>
      <!-- Head -->
      <ellipse class="nobita-skin" cx="0" cy="163" rx="11" ry="11"/>
      <!-- Glasses -->
      <circle class="nobita-glasses" cx="-4" cy="162" r="5"/>
      <circle class="nobita-glasses" cx="6" cy="162" r="5"/>
      <line x1="1" y1="162" x2="1" y2="162" stroke="#2C3E50" stroke-width="1.5"/>
      <!-- Eyes (panicked) -->
      <circle class="nobita-eye" cx="-4" cy="162" r="1.5"/>
      <circle class="nobita-eye" cx="6" cy="162" r="1.5"/>
      <!-- Open mouth (screaming) -->
      <ellipse fill="#C0392B" cx="1" cy="170" rx="4" ry="3"/>
      <!-- Body / Shirt -->
      <rect class="nobita-shirt" x="-8" y="175" width="16" height="18" rx="3"/>
      <!-- Arms flailing -->
      <line x1="-8" y1="178" x2="-18" y2="170" stroke="#FDBF6F" stroke-width="3" stroke-linecap="round"/>
      <line x1="8" y1="178" x2="18" y2="170" stroke="#FDBF6F" stroke-width="3" stroke-linecap="round"/>
      <!-- Shorts -->
      <rect class="nobita-shorts" x="-8" y="193" width="16" height="8" rx="2"/>
      <!-- Legs (animated) -->
      <g class="nobita-leg-left">
        <line x1="-4" y1="201" x2="-8" y2="212" stroke="#FDBF6F" stroke-width="3" stroke-linecap="round"/>
        <ellipse class="nobita-shoe" cx="-8" cy="213" rx="4" ry="2"/>
      </g>
      <g class="nobita-leg-right">
        <line x1="4" y1="201" x2="8" y2="212" stroke="#FDBF6F" stroke-width="3" stroke-linecap="round"/>
        <ellipse class="nobita-shoe" cx="8" cy="213" rx="4" ry="2"/>
      </g>
      <!-- Sweat drops -->
      <circle class="sweat" cx="13" cy="158" r="2"/>
      <circle class="sweat" cx="16" cy="162" r="1.5"/>
      <!-- Exclamation -->
      <text class="exclaim" x="-5" y="148">HELP!</text>
      <!-- Dust clouds behind -->
      <circle class="dust" cx="20" cy="210" r="3"/>
      <circle class="dust" cx="25" cy="208" r="2"/>
      <circle class="dust" cx="28" cy="211" r="2.5"/>
    </g>
    <!-- Hearts (appear when near Shizuka position ~340px) -->
    <g>
      <path class="heart" d="M-15,145 C-15,140 -10,138 -8,142 C-6,138 -1,140 -1,145 C-1,150 -8,155 -8,155 C-8,155 -15,150 -15,145Z" transform="scale(0.5)"/>
      <path class="heart" d="M-30,140 C-30,135 -25,133 -23,137 C-21,133 -16,135 -16,140 C-16,145 -23,150 -23,150 C-23,150 -30,145 -30,140Z" transform="scale(0.5)"/>
    </g>
    <!-- Label -->
    <text x="0" y="232" text-anchor="middle" fill="#F1C40F" font-family="'Segoe UI',sans-serif" font-size="9" font-weight="bold">Nobita</text>
  </g>

  <!-- ===== GIAN (Chasing Nobita) ===== -->
  <g class="gian-group">
    <!-- Head (bigger) -->
    <ellipse class="gian-skin" cx="0" cy="160" rx="14" ry="14"/>
    <!-- Buzz cut hair -->
    <path class="gian-hair" d="M-14,155 Q0,140 14,155" />
    <!-- Angry eyes -->
    <line x1="-7" y1="155" x2="-2" y2="157" stroke="#2C3E50" stroke-width="2" stroke-linecap="round"/>
    <line x1="7" y1="155" x2="2" y2="157" stroke="#2C3E50" stroke-width="2" stroke-linecap="round"/>
    <circle class="gian-eye" cx="-5" cy="160" r="2"/>
    <circle class="gian-eye" cx="5" cy="160" r="2"/>
    <!-- Angry mouth -->
    <path d="M-6,167 L0,165 L6,167" fill="none" stroke="#C0392B" stroke-width="2" stroke-linecap="round"/>
    <!-- Angry marks -->
    <g class="angry-mark" transform="translate(12, 148)">
      <line x1="0" y1="0" x2="5" y2="0" stroke="#E74C3C" stroke-width="2"/>
      <line x1="2.5" y1="-2.5" x2="2.5" y2="2.5" stroke="#E74C3C" stroke-width="2"/>
    </g>
    <!-- Body (stocky) -->
    <rect class="gian-shirt" x="-12" y="175" width="24" height="20" rx="4"/>
    <!-- Arms -->
    <line x1="-12" y1="180" x2="-22" y2="173" stroke="#D4A76A" stroke-width="4" stroke-linecap="round"/>
    <!-- Fist -->
    <circle fill="#D4A76A" cx="-23" cy="171" r="4"/>
    <line x1="12" y1="180" x2="22" y2="175" stroke="#D4A76A" stroke-width="4" stroke-linecap="round"/>
    <circle fill="#D4A76A" cx="23" cy="173" r="4"/>
    <!-- Shorts -->
    <rect class="gian-shorts" x="-12" y="195" width="24" height="8" rx="2"/>
    <!-- Legs -->
    <g class="gian-leg-left">
      <line x1="-6" y1="203" x2="-10" y2="212" stroke="#D4A76A" stroke-width="4" stroke-linecap="round"/>
      <ellipse class="gian-shoe" cx="-10" cy="213" rx="5" ry="2.5"/>
    </g>
    <g class="gian-leg-right">
      <line x1="6" y1="203" x2="10" y2="212" stroke="#D4A76A" stroke-width="4" stroke-linecap="round"/>
      <ellipse class="gian-shoe" cx="10" cy="213" rx="5" ry="2.5"/>
    </g>
    <!-- Exclamation -->
    <text class="exclaim" x="-8" y="142" fill="#E74C3C">WAIT!!</text>
    <!-- Dust -->
    <circle class="dust" cx="22" cy="210" r="3"/>
    <circle class="dust" cx="26" cy="208" r="2.5"/>
    <!-- Label -->
    <text x="0" y="232" text-anchor="middle" fill="#E67E22" font-family="'Segoe UI',sans-serif" font-size="9" font-weight="bold">Gian</text>
  </g>

  <!-- ===== SUNEO (Chasing behind Gian) ===== -->
  <g class="suneo-group">
    <!-- Pointy hair -->
    <polygon class="suneo-hair" points="-8,155 0,138 8,155"/>
    <!-- Head (smaller, pointy face) -->
    <ellipse class="suneo-skin" cx="0" cy="162" rx="10" ry="10"/>
    <!-- Pointy nose -->
    <polygon class="suneo-skin" points="8,162 14,164 8,166"/>
    <!-- Eyes (sly) -->
    <ellipse class="suneo-eye" cx="-3" cy="161" rx="1.8" ry="2"/>
    <ellipse class="suneo-eye" cx="4" cy="161" rx="1.8" ry="2"/>
    <!-- Smirk -->
    <path d="M-2,167 Q3,170 7,167" fill="none" stroke="#2C3E50" stroke-width="1.2" stroke-linecap="round"/>
    <!-- Body -->
    <rect class="suneo-shirt" x="-8" y="173" width="16" height="18" rx="3"/>
    <!-- Arms -->
    <line x1="-8" y1="178" x2="-16" y2="172" stroke="#FDBF6F" stroke-width="3" stroke-linecap="round"/>
    <line x1="8" y1="178" x2="16" y2="172" stroke="#FDBF6F" stroke-width="3" stroke-linecap="round"/>
    <!-- Shorts -->
    <rect class="suneo-shorts" x="-8" y="191" width="16" height="8" rx="2"/>
    <!-- Legs -->
    <g class="suneo-leg-left">
      <line x1="-4" y1="199" x2="-7" y2="210" stroke="#FDBF6F" stroke-width="3" stroke-linecap="round"/>
      <ellipse class="suneo-shoe" cx="-7" cy="211" rx="4" ry="2"/>
    </g>
    <g class="suneo-leg-right">
      <line x1="4" y1="199" x2="7" y2="210" stroke="#FDBF6F" stroke-width="3" stroke-linecap="round"/>
      <ellipse class="suneo-shoe" cx="7" cy="211" rx="4" ry="2"/>
    </g>
    <!-- Exclamation -->
    <text class="exclaim" x="-5" y="132" fill="#27AE60">Hehe!</text>
    <!-- Dust -->
    <circle class="dust" cx="18" cy="209" r="2.5"/>
    <circle class="dust" cx="22" cy="211" r="2"/>
    <!-- Label -->
    <text x="0" y="232" text-anchor="middle" fill="#27AE60" font-family="'Segoe UI',sans-serif" font-size="9" font-weight="bold">Suneo</text>
  </g>

  <!-- ===== DORAEMON FLYING ===== -->
  <g class="doraemon-group">
    <g class="doraemon-bob">
      <!-- Bamboo Copter -->
      <g class="copter-spin">
        <rect class="copter-blade" x="-18" y="-30" width="36" height="4" rx="2"/>
      </g>
      <rect fill="#8B4513" x="-1.5" y="-26" width="3" height="6" rx="1"/>

      <!-- Body -->
      <ellipse class="doraemon-body" cx="0" cy="0" rx="18" ry="20"/>
      <!-- White belly -->
      <ellipse class="doraemon-face" cx="0" cy="5" rx="14" ry="15"/>
      <!-- Face -->
      <ellipse class="doraemon-face" cx="0" cy="-8" rx="16" ry="14"/>
      <!-- Eyes -->
      <ellipse class="doraemon-eye" cx="-5" cy="-12" rx="5" ry="6"/>
      <ellipse class="doraemon-eye" cx="5" cy="-12" rx="5" ry="6"/>
      <!-- Pupils -->
      <circle class="doraemon-pupil" cx="-3" cy="-11" r="2.5"/>
      <circle class="doraemon-pupil" cx="3" cy="-11" r="2.5"/>
      <!-- Eye shine -->
      <circle fill="#FFFFFF" cx="-2" cy="-12.5" r="1"/>
      <circle fill="#FFFFFF" cx="4" cy="-12.5" r="1"/>
      <!-- Nose -->
      <circle class="doraemon-nose" cx="0" cy="-6" r="3"/>
      <circle fill="#FFFFFF" cx="-1" cy="-7" r="1"/>
      <!-- Nose line -->
      <line x1="0" y1="-3" x2="0" y2="2" stroke="#2C3E50" stroke-width="1"/>
      <!-- Mouth -->
      <path class="doraemon-mouth" d="M-12,2 Q0,14 12,2"/>
      <!-- Whiskers -->
      <line x1="-18" y1="-8" x2="-30" y2="-12" stroke="#2C3E50" stroke-width="1"/>
      <line x1="-18" y1="-4" x2="-30" y2="-4" stroke="#2C3E50" stroke-width="1"/>
      <line x1="-18" y1="0" x2="-30" y2="4" stroke="#2C3E50" stroke-width="1"/>
      <line x1="18" y1="-8" x2="30" y2="-12" stroke="#2C3E50" stroke-width="1"/>
      <line x1="18" y1="-4" x2="30" y2="-4" stroke="#2C3E50" stroke-width="1"/>
      <line x1="18" y1="0" x2="30" y2="4" stroke="#2C3E50" stroke-width="1"/>
      <!-- Collar -->
      <rect class="doraemon-collar" x="-15" y="12" width="30" height="5" rx="2"/>
      <!-- Bell -->
      <circle class="doraemon-bell" cx="0" cy="17" r="4"/>
      <line x1="-3" y1="16" x2="3" y2="16" stroke="#E67E22" stroke-width="0.8"/>
      <circle fill="#E67E22" cx="0" cy="18" r="1"/>
      <!-- Pocket -->
      <path class="doraemon-pocket" d="M-10,5 Q-10,18 0,18 Q10,18 10,5" fill="#FFFFFF"/>
      <!-- Arms (stretched out like flying) -->
      <line x1="-18" y1="0" x2="-28" y2="-8" stroke="#0097E6" stroke-width="5" stroke-linecap="round"/>
      <circle fill="#FFFFFF" cx="-29" cy="-9" r="4"/>
      <line x1="18" y1="0" x2="28" y2="-8" stroke="#0097E6" stroke-width="5" stroke-linecap="round"/>
      <circle fill="#FFFFFF" cx="29" cy="-9" r="4"/>
      <!-- Feet -->
      <ellipse fill="#FFFFFF" cx="-8" cy="22" rx="6" ry="3"/>
      <ellipse fill="#FFFFFF" cx="8" cy="22" rx="6" ry="3"/>
      <!-- Label -->
      <text x="0" y="38" text-anchor="middle" fill="#0097E6" font-family="'Segoe UI',sans-serif" font-size="9" font-weight="bold">Doraemon ✈</text>
    </g>
  </g>

  <!-- Footer Text -->
  <text class="footer-text" x="450" y="258">Made with 💙 by</text>
  <text class="footer-highlight" x="450" y="272">Naka Vasanth</text>
</svg>
